<svg width="218" height="101" viewBox="0 0 218 101" fill="none" xmlns="http://www.w3.org/2000/svg">
<path d="M52.5422 0.51123C24.0214 0.51123 0.900635 23.6319 0.900635 52.1531C0.900635 74.2907 14.8344 93.1683 34.408 100.511L46.3086 68.7762C39.5803 66.2524 34.7904 59.7629 34.7904 52.1531C34.7904 42.349 42.7384 34.401 52.5422 34.401C62.3463 34.401 70.2945 42.349 70.2945 52.1531C70.2945 59.7629 65.5044 66.2524 58.7761 68.7762L70.6767 100.511C90.25 93.1683 104.184 74.2907 104.184 52.1531C104.184 23.6319 81.0637 0.51123 52.5422 0.51123Z" fill="white"/>
<path d="M162.922 100.499L155.021 93.4158C145.849 85.1516 138.266 78.0225 132.272 72.0287C126.278 66.0348 121.51 60.654 117.969 55.8862C114.427 51.1183 111.952 46.7365 110.544 42.7406C109.137 38.7447 108.433 34.658 108.433 30.4804C108.433 21.9438 111.294 14.8147 117.015 9.09332C122.736 3.37193 129.865 0.51123 138.402 0.51123C143.124 0.51123 147.62 1.5102 151.888 3.50815C156.157 5.5061 159.835 8.32139 162.922 11.954C166.01 8.32139 169.688 5.5061 173.956 3.50815C178.225 1.5102 182.72 0.51123 187.443 0.51123C195.979 0.51123 203.108 3.37193 208.83 9.09332C214.551 14.8147 217.412 21.9438 217.412 30.4804C217.412 34.658 216.708 38.7447 215.3 42.7406C213.893 46.7365 211.418 51.1183 207.876 55.8862C204.334 60.654 199.566 66.0348 193.573 72.0287C187.579 78.0225 179.996 85.1516 170.823 93.4158L162.922 100.499Z" fill="white"/>
</svg>
