<svg width="250" height="253" viewBox="0 0 250 253" fill="none" xmlns="http://www.w3.org/2000/svg">
<circle cx="125" cy="128" r="125" fill="#1E872F"/>
<rect x="21.634" y="126.634" width="84" height="116" rx="13" transform="rotate(-30 21.634 126.634)" fill="white" stroke="black" stroke-width="2"/>
<rect x="63.3049" y="170.135" width="40" height="40" transform="rotate(-75 63.3049 170.135)" fill="#FF0000"/>
<path d="M46.6795 133.742L53.9522 146.339L50.9137 148.093L45.2816 138.338L45.2078 138.381L43.3851 141.729L41.8652 139.097L43.8563 135.372L46.6795 133.742Z" fill="#FF0000"/>
<path d="M131.177 168.096L138.45 180.693L135.411 182.447L129.779 172.692L129.705 172.734L127.883 176.083L126.363 173.451L128.354 169.726L131.177 168.096Z" fill="#FF0000"/>
<rect x="100.366" y="136.366" width="80" height="112" rx="11" transform="rotate(-30 100.366 136.366)" fill="white" stroke="black" stroke-width="2"/>
<rect x="139.305" y="179.135" width="40" height="40" transform="rotate(-75 139.305 179.135)" fill="black"/>
<path d="M126.016 157.582C125.056 158.136 124.111 158.464 123.179 158.564C122.249 158.658 121.403 158.537 120.64 158.201C119.878 157.865 119.273 157.32 118.827 156.566L121.89 154.798C122.061 155.065 122.29 155.258 122.577 155.377C122.862 155.491 123.18 155.526 123.532 155.482C123.883 155.437 124.24 155.311 124.601 155.103C124.961 154.894 125.242 154.647 125.444 154.362C125.647 154.069 125.761 153.766 125.787 153.45C125.81 153.131 125.734 152.824 125.56 152.531C125.394 152.234 125.158 152.02 124.853 151.89C124.548 151.76 124.201 151.722 123.812 151.777C123.427 151.83 123.021 151.98 122.595 152.226L121.371 152.932L120.121 150.767L121.345 150.061C121.718 149.845 122.011 149.594 122.223 149.308C122.439 149.019 122.563 148.718 122.595 148.404C122.624 148.086 122.553 147.783 122.381 147.494C122.222 147.209 122.011 147 121.748 146.867C121.488 146.728 121.2 146.67 120.885 146.693C120.575 146.714 120.259 146.817 119.94 147.001C119.603 147.195 119.332 147.431 119.126 147.709C118.924 147.984 118.806 148.276 118.771 148.586C118.737 148.896 118.799 149.196 118.956 149.488L116.047 151.168C115.622 150.413 115.45 149.632 115.531 148.825C115.609 148.014 115.908 147.243 116.426 146.512C116.948 145.779 117.663 145.15 118.569 144.627C119.471 144.106 120.355 143.806 121.223 143.726C122.09 143.647 122.871 143.77 123.568 144.095C124.261 144.416 124.806 144.919 125.201 145.604C125.615 146.311 125.721 147.029 125.518 147.758C125.32 148.485 124.887 149.112 124.219 149.64L124.275 149.738C125.318 149.29 126.236 149.181 127.03 149.411C127.829 149.639 128.45 150.141 128.893 150.919C129.315 151.648 129.473 152.421 129.37 153.235C129.267 154.043 128.929 154.829 128.353 155.593C127.779 156.351 127 157.014 126.016 157.582Z" fill="black"/>
<path d="M211.379 191.436C210.42 191.99 209.474 192.317 208.543 192.418C207.613 192.512 206.766 192.391 206.004 192.055C205.241 191.719 204.637 191.174 204.191 190.42L207.254 188.652C207.425 188.919 207.654 189.112 207.941 189.231C208.226 189.345 208.544 189.38 208.895 189.336C209.247 189.291 209.603 189.165 209.964 188.957C210.325 188.748 210.606 188.501 210.807 188.215C211.01 187.923 211.125 187.619 211.15 187.304C211.174 186.984 211.098 186.678 210.923 186.385C210.757 186.088 210.521 185.874 210.217 185.744C209.912 185.613 209.565 185.576 209.176 185.631C208.791 185.684 208.385 185.833 207.958 186.08L206.734 186.786L205.484 184.621L206.708 183.915C207.082 183.699 207.374 183.448 207.586 183.162C207.802 182.873 207.926 182.572 207.958 182.258C207.988 181.94 207.917 181.637 207.744 181.348C207.585 181.063 207.374 180.854 207.112 180.721C206.851 180.582 206.563 180.524 206.249 180.547C205.938 180.568 205.623 180.67 205.303 180.855C204.967 181.049 204.696 181.285 204.49 181.563C204.288 181.838 204.169 182.13 204.135 182.44C204.1 182.749 204.162 183.05 204.319 183.342L201.41 185.022C200.985 184.267 200.813 183.486 200.894 182.679C200.973 181.868 201.271 181.097 201.789 180.366C202.312 179.632 203.026 179.004 203.932 178.481C204.834 177.96 205.719 177.66 206.586 177.58C207.453 177.501 208.235 177.623 208.931 177.949C209.625 178.27 210.169 178.773 210.565 179.457C210.978 180.164 211.084 180.883 210.882 181.612C210.684 182.338 210.25 182.966 209.582 183.494L209.639 183.592C210.681 183.144 211.599 183.034 212.394 183.265C213.192 183.492 213.813 183.995 214.257 184.772C214.678 185.502 214.837 186.274 214.733 187.089C214.631 187.897 214.292 188.683 213.716 189.447C213.142 190.205 212.363 190.868 211.379 191.436Z" fill="black"/>
<path d="M126.703 56.8906L124.453 67.1094L115.688 66.6406C115.25 64.7656 114.609 62.7188 113.766 60.5C113.266 59.0625 112.891 57.9531 112.641 57.1719C112.422 56.3594 112.312 55.5938 112.312 54.875C112.312 53.75 112.656 52.7031 113.344 51.7344C114.062 50.7344 115.266 49.7188 116.953 48.6875L131.156 40.1562C129.125 39.0312 126.703 38.1094 123.891 37.3906C121.078 36.6406 117.344 35.8125 112.688 34.9062L107.25 33.7812C107.531 31.9062 108.141 29.9688 109.078 27.9688C110.016 25.9375 111.109 24.1563 112.359 22.625C113.641 21.0625 114.891 20.0156 116.109 19.4844C118.172 19.4844 120.797 19.8125 123.984 20.4688C127.172 21.125 130.375 22.2813 133.594 23.9375C136.844 25.5625 139.422 27.7344 141.328 30.4531C141.734 31.8281 142.047 33.4844 142.266 35.4219C142.516 37.3594 142.641 39.4062 142.641 41.5625C142.641 46.2812 142.125 50.4375 141.094 54.0312C141.094 54.0625 140.391 54.3438 138.984 54.875C137.578 55.375 135.906 55.8438 133.969 56.2812C132.062 56.7188 130.094 56.9375 128.062 56.9375C127.469 56.9375 127.016 56.9219 126.703 56.8906ZM116.719 76.25C118.344 74.4062 119.547 73.2344 120.328 72.7344C123.172 73.5156 125.812 74.8594 128.25 76.7656C130.688 78.6719 132.766 80.8281 134.484 83.2344C134.047 85.1719 133.016 87.0781 131.391 88.9531C129.766 90.7969 127.953 92.4062 125.953 93.7812C123.984 95.1562 122.234 96.0938 120.703 96.5938C114.922 94.0938 111.219 90.5156 109.594 85.8594C109.844 85.1406 110.688 83.8281 112.125 81.9219C113.562 79.9844 115.094 78.0938 116.719 76.25Z" fill="white"/>
</svg>
