<svg width="233" height="44" viewBox="0 0 233 44" fill="none" xmlns="http://www.w3.org/2000/svg">
<path d="M17.63 34.6223C16.7895 34.6223 15.9498 34.5024 15.1112 34.2627C14.2725 34.0229 13.5173 33.6262 12.8455 33.0723C13.839 32.5493 14.5195 31.9079 14.8868 31.1483C15.2541 30.3887 15.4377 29.4178 15.4377 28.2357C15.4377 27.0156 15.8591 25.9833 16.702 25.1389C17.5448 24.2945 18.5756 23.8724 19.7942 23.8724C21.0129 23.8724 22.0447 24.2938 22.8896 25.1368C23.7344 25.9797 24.1569 27.0118 24.1569 28.2331C24.1569 30.0996 23.5266 31.6311 22.266 32.8276C21.0055 34.024 19.4601 34.6223 17.63 34.6223ZM17.6297 32.43C18.7691 32.43 19.7765 32.0218 20.6517 31.2055C21.527 30.3891 21.9646 29.397 21.9646 28.2292C21.9646 27.6067 21.7645 27.0903 21.3643 26.68C20.964 26.2697 20.4372 26.0646 19.7836 26.0646C19.1301 26.0646 18.6078 26.2697 18.2167 26.68C17.8256 27.0903 17.63 27.6095 17.63 28.2377C17.63 29.4054 17.5012 30.3002 17.2435 30.9221C16.9858 31.544 16.5223 31.9673 15.8531 32.192C16.0274 32.2225 16.3204 32.2698 16.7319 32.3339C17.1435 32.398 17.4427 32.43 17.6297 32.43ZM28.1376 23.7262L24.4838 19.8955L43.6934 0.685913L47.3876 4.47621L28.1376 23.7262Z" fill="white"/>
<path d="M24.1441 43.6506V41.4583H31.6114V29.4399H35.596V28.1691H31.6114V16.1506H29.0186L30.8931 13.9584H33.8036V26.2218H37.8036V31.3333H33.8036V43.6506H24.1441ZM4.11143 43.6506V31.3333H0.111435V26.2218H4.11143V13.9584H13.8056V16.1506H6.30369V28.1691H2.31908V29.4399H6.30369V41.4583H13.8056V43.6506H4.11143Z" fill="white"/>
<path d="M56.5254 36.3044C56.2987 35.7044 56.0854 35.1178 55.8854 34.5444C55.6854 33.9578 55.4787 33.3644 55.2654 32.7644H48.9854L47.7254 36.3044H45.7054C46.2387 34.8378 46.7387 33.4844 47.2054 32.2444C47.672 30.9911 48.1254 29.8044 48.5654 28.6844C49.0187 27.5644 49.4654 26.4978 49.9054 25.4844C50.3454 24.4578 50.8054 23.4444 51.2854 22.4444H53.0654C53.5454 23.4444 54.0054 24.4578 54.4454 25.4844C54.8854 26.4978 55.3254 27.5644 55.7654 28.6844C56.2187 29.8044 56.6787 30.9911 57.1454 32.2444C57.612 33.4844 58.112 34.8378 58.6454 36.3044H56.5254ZM54.7054 31.1644C54.2787 30.0044 53.852 28.8844 53.4254 27.8044C53.012 26.7111 52.5787 25.6644 52.1254 24.6644C51.6587 25.6644 51.212 26.7111 50.7854 27.8044C50.372 28.8844 49.9587 30.0044 49.5454 31.1644H54.7054ZM63.5271 36.5044C62.3804 36.4778 61.5671 36.2311 61.0871 35.7644C60.6071 35.2978 60.3671 34.5711 60.3671 33.5844V21.1044L62.2271 20.7844V33.2844C62.2271 33.5911 62.2537 33.8444 62.3071 34.0444C62.3604 34.2444 62.4471 34.4044 62.5671 34.5244C62.6871 34.6444 62.8471 34.7378 63.0471 34.8044C63.2471 34.8578 63.4938 34.9044 63.7871 34.9444L63.5271 36.5044ZM65.2958 31.1244C65.2958 30.2044 65.4292 29.4044 65.6958 28.7244C65.9625 28.0311 66.3158 27.4578 66.7558 27.0044C67.1958 26.5511 67.7025 26.2111 68.2758 25.9844C68.8492 25.7578 69.4358 25.6444 70.0358 25.6444C71.4358 25.6444 72.5092 26.0844 73.2558 26.9644C74.0025 27.8311 74.3758 29.1578 74.3758 30.9444C74.3758 31.0244 74.3758 31.1311 74.3758 31.2644C74.3758 31.3844 74.3692 31.4978 74.3558 31.6044H67.2358C67.3158 32.6844 67.6292 33.5044 68.1758 34.0644C68.7225 34.6244 69.5758 34.9044 70.7358 34.9044C71.3892 34.9044 71.9358 34.8511 72.3758 34.7444C72.8292 34.6244 73.1692 34.5111 73.3958 34.4044L73.6558 35.9644C73.4292 36.0844 73.0292 36.2111 72.4558 36.3444C71.8958 36.4778 71.2558 36.5444 70.5358 36.5444C69.6292 36.5444 68.8425 36.4111 68.1758 36.1444C67.5225 35.8644 66.9825 35.4844 66.5558 35.0044C66.1292 34.5244 65.8092 33.9578 65.5958 33.3044C65.3958 32.6378 65.2958 31.9111 65.2958 31.1244ZM72.4358 30.1044C72.4492 29.2644 72.2358 28.5778 71.7958 28.0444C71.3692 27.4978 70.7758 27.2244 70.0158 27.2244C69.5892 27.2244 69.2092 27.3111 68.8758 27.4844C68.5558 27.6444 68.2825 27.8578 68.0558 28.1244C67.8292 28.3911 67.6492 28.6978 67.5158 29.0444C67.3958 29.3911 67.3158 29.7444 67.2758 30.1044H72.4358ZM79.4677 34.9644C80.2277 34.9644 80.7877 34.8644 81.1477 34.6644C81.521 34.4644 81.7077 34.1444 81.7077 33.7044C81.7077 33.2511 81.5277 32.8911 81.1677 32.6244C80.8077 32.3578 80.2144 32.0578 79.3877 31.7244C78.9877 31.5644 78.601 31.4044 78.2277 31.2444C77.8677 31.0711 77.5544 30.8711 77.2877 30.6444C77.021 30.4178 76.8077 30.1444 76.6477 29.8244C76.4877 29.5044 76.4077 29.1111 76.4077 28.6444C76.4077 27.7244 76.7477 26.9978 77.4277 26.4644C78.1077 25.9178 79.0344 25.6444 80.2077 25.6444C80.501 25.6444 80.7944 25.6644 81.0877 25.7044C81.381 25.7311 81.6544 25.7711 81.9077 25.8244C82.161 25.8644 82.381 25.9111 82.5677 25.9644C82.7677 26.0178 82.921 26.0644 83.0277 26.1044L82.6877 27.7044C82.4877 27.5978 82.1744 27.4911 81.7477 27.3844C81.321 27.2644 80.8077 27.2044 80.2077 27.2044C79.6877 27.2044 79.2344 27.3111 78.8477 27.5244C78.461 27.7244 78.2677 28.0444 78.2677 28.4844C78.2677 28.7111 78.3077 28.9111 78.3877 29.0844C78.481 29.2578 78.6144 29.4178 78.7877 29.5644C78.9744 29.6978 79.201 29.8244 79.4677 29.9444C79.7344 30.0644 80.0544 30.1911 80.4277 30.3244C80.921 30.5111 81.361 30.6978 81.7477 30.8844C82.1344 31.0578 82.461 31.2644 82.7277 31.5044C83.0077 31.7444 83.221 32.0378 83.3677 32.3844C83.5144 32.7178 83.5877 33.1311 83.5877 33.6244C83.5877 34.5844 83.2277 35.3111 82.5077 35.8044C81.801 36.2978 80.7877 36.5444 79.4677 36.5444C78.5477 36.5444 77.8277 36.4644 77.3077 36.3044C76.7877 36.1578 76.4344 36.0444 76.2477 35.9644L76.5877 34.3644C76.801 34.4444 77.141 34.5644 77.6077 34.7244C78.0744 34.8844 78.6944 34.9644 79.4677 34.9644ZM88.3935 34.9644C89.1535 34.9644 89.7135 34.8644 90.0735 34.6644C90.4468 34.4644 90.6335 34.1444 90.6335 33.7044C90.6335 33.2511 90.4535 32.8911 90.0935 32.6244C89.7335 32.3578 89.1402 32.0578 88.3135 31.7244C87.9135 31.5644 87.5268 31.4044 87.1535 31.2444C86.7935 31.0711 86.4802 30.8711 86.2135 30.6444C85.9468 30.4178 85.7335 30.1444 85.5735 29.8244C85.4135 29.5044 85.3335 29.1111 85.3335 28.6444C85.3335 27.7244 85.6735 26.9978 86.3535 26.4644C87.0335 25.9178 87.9602 25.6444 89.1335 25.6444C89.4268 25.6444 89.7202 25.6644 90.0135 25.7044C90.3068 25.7311 90.5802 25.7711 90.8335 25.8244C91.0868 25.8644 91.3068 25.9111 91.4935 25.9644C91.6935 26.0178 91.8468 26.0644 91.9535 26.1044L91.6135 27.7044C91.4135 27.5978 91.1002 27.4911 90.6735 27.3844C90.2468 27.2644 89.7335 27.2044 89.1335 27.2044C88.6135 27.2044 88.1602 27.3111 87.7735 27.5244C87.3868 27.7244 87.1935 28.0444 87.1935 28.4844C87.1935 28.7111 87.2335 28.9111 87.3135 29.0844C87.4068 29.2578 87.5402 29.4178 87.7135 29.5644C87.9002 29.6978 88.1268 29.8244 88.3935 29.9444C88.6602 30.0644 88.9802 30.1911 89.3535 30.3244C89.8468 30.5111 90.2868 30.6978 90.6735 30.8844C91.0602 31.0578 91.3868 31.2644 91.6535 31.5044C91.9335 31.7444 92.1468 32.0378 92.2935 32.3844C92.4402 32.7178 92.5135 33.1311 92.5135 33.6244C92.5135 34.5844 92.1535 35.3111 91.4335 35.8044C90.7268 36.2978 89.7135 36.5444 88.3935 36.5444C87.4735 36.5444 86.7535 36.4644 86.2335 36.3044C85.7135 36.1578 85.3602 36.0444 85.1735 35.9644L85.5135 34.3644C85.7268 34.4444 86.0668 34.5644 86.5335 34.7244C87.0002 34.8844 87.6202 34.9644 88.3935 34.9644ZM98.4193 34.9644C98.8593 34.9644 99.2459 34.9578 99.5793 34.9444C99.9259 34.9178 100.213 34.8778 100.439 34.8244V31.7244C100.306 31.6578 100.086 31.6044 99.7793 31.5644C99.4859 31.5111 99.1259 31.4844 98.6993 31.4844C98.4193 31.4844 98.1193 31.5044 97.7993 31.5444C97.4926 31.5844 97.2059 31.6711 96.9393 31.8044C96.6859 31.9244 96.4726 32.0978 96.2993 32.3244C96.1259 32.5378 96.0393 32.8244 96.0393 33.1844C96.0393 33.8511 96.2526 34.3178 96.6793 34.5844C97.1059 34.8378 97.6859 34.9644 98.4193 34.9644ZM98.2593 25.6444C99.0059 25.6444 99.6326 25.7444 100.139 25.9444C100.659 26.1311 101.073 26.4044 101.379 26.7644C101.699 27.1111 101.926 27.5311 102.059 28.0244C102.193 28.5044 102.259 29.0378 102.259 29.6244V36.1244C102.099 36.1511 101.873 36.1911 101.579 36.2444C101.299 36.2844 100.979 36.3244 100.619 36.3644C100.259 36.4044 99.8659 36.4378 99.4393 36.4644C99.0259 36.5044 98.6126 36.5244 98.1993 36.5244C97.6126 36.5244 97.0726 36.4644 96.5793 36.3444C96.0859 36.2244 95.6593 36.0378 95.2993 35.7844C94.9393 35.5178 94.6593 35.1711 94.4593 34.7444C94.2593 34.3178 94.1593 33.8044 94.1593 33.2044C94.1593 32.6311 94.2726 32.1378 94.4993 31.7244C94.7393 31.3111 95.0593 30.9778 95.4593 30.7244C95.8593 30.4711 96.3259 30.2844 96.8593 30.1644C97.3926 30.0444 97.9526 29.9844 98.5393 29.9844C98.7259 29.9844 98.9193 29.9978 99.1193 30.0244C99.3193 30.0378 99.5059 30.0644 99.6793 30.1044C99.8659 30.1311 100.026 30.1578 100.159 30.1844C100.293 30.2111 100.386 30.2311 100.439 30.2444V29.7244C100.439 29.4178 100.406 29.1178 100.339 28.8244C100.273 28.5178 100.153 28.2511 99.9793 28.0244C99.8059 27.7844 99.5659 27.5978 99.2593 27.4644C98.9659 27.3178 98.5793 27.2444 98.0993 27.2444C97.4859 27.2444 96.9459 27.2911 96.4793 27.3844C96.0259 27.4644 95.6859 27.5511 95.4593 27.6444L95.2393 26.1044C95.4793 25.9978 95.8793 25.8978 96.4393 25.8044C96.9993 25.6978 97.6059 25.6444 98.2593 25.6444ZM105.348 26.2044C105.775 26.0978 106.342 25.9844 107.048 25.8644C107.755 25.7444 108.568 25.6844 109.488 25.6844C110.315 25.6844 111.002 25.8044 111.548 26.0444C112.095 26.2711 112.528 26.5978 112.848 27.0244C113.182 27.4378 113.415 27.9378 113.548 28.5244C113.682 29.1111 113.748 29.7578 113.748 30.4644V36.3044H111.888V30.8644C111.888 30.2244 111.842 29.6778 111.748 29.2244C111.668 28.7711 111.528 28.4044 111.328 28.1244C111.128 27.8444 110.862 27.6444 110.528 27.5244C110.195 27.3911 109.782 27.3244 109.288 27.3244C109.088 27.3244 108.882 27.3311 108.668 27.3444C108.455 27.3578 108.248 27.3778 108.048 27.4044C107.862 27.4178 107.688 27.4378 107.528 27.4644C107.382 27.4911 107.275 27.5111 107.208 27.5244V36.3044H105.348V26.2044ZM123.553 28.1044C123.326 27.9178 123 27.7378 122.573 27.5644C122.146 27.3911 121.68 27.3044 121.173 27.3044C120.64 27.3044 120.18 27.4044 119.793 27.6044C119.42 27.7911 119.113 28.0578 118.873 28.4044C118.633 28.7378 118.46 29.1378 118.353 29.6044C118.246 30.0711 118.193 30.5711 118.193 31.1044C118.193 32.3178 118.493 33.2578 119.093 33.9244C119.693 34.5778 120.493 34.9044 121.493 34.9044C122 34.9044 122.42 34.8844 122.753 34.8444C123.1 34.7911 123.366 34.7378 123.553 34.6844V28.1044ZM123.553 21.1044L125.413 20.7844V36.0044C124.986 36.1244 124.44 36.2444 123.773 36.3644C123.106 36.4844 122.34 36.5444 121.473 36.5444C120.673 36.5444 119.953 36.4178 119.313 36.1644C118.673 35.9111 118.126 35.5511 117.673 35.0844C117.22 34.6178 116.866 34.0511 116.613 33.3844C116.373 32.7044 116.253 31.9444 116.253 31.1044C116.253 30.3044 116.353 29.5711 116.553 28.9044C116.766 28.2378 117.073 27.6644 117.473 27.1844C117.873 26.7044 118.36 26.3311 118.933 26.0644C119.52 25.7978 120.186 25.6644 120.933 25.6644C121.533 25.6644 122.06 25.7444 122.513 25.9044C122.98 26.0644 123.326 26.2178 123.553 26.3644V21.1044ZM132.45 25.6844C132.61 25.6844 132.79 25.6978 132.99 25.7244C133.204 25.7378 133.41 25.7644 133.61 25.8044C133.81 25.8311 133.99 25.8644 134.15 25.9044C134.324 25.9311 134.45 25.9578 134.53 25.9844L134.21 27.6044C134.064 27.5511 133.817 27.4911 133.47 27.4244C133.137 27.3444 132.704 27.3044 132.17 27.3044C131.824 27.3044 131.477 27.3444 131.13 27.4244C130.797 27.4911 130.577 27.5378 130.47 27.5644V36.3044H128.61V26.3444C129.05 26.1844 129.597 26.0378 130.25 25.9044C130.904 25.7578 131.637 25.6844 132.45 25.6844ZM145.505 31.1044C145.505 31.9311 145.385 32.6778 145.145 33.3444C144.905 34.0111 144.565 34.5844 144.125 35.0644C143.698 35.5444 143.185 35.9178 142.585 36.1844C141.985 36.4378 141.332 36.5644 140.625 36.5644C139.918 36.5644 139.265 36.4378 138.665 36.1844C138.065 35.9178 137.545 35.5444 137.105 35.0644C136.678 34.5844 136.345 34.0111 136.105 33.3444C135.865 32.6778 135.745 31.9311 135.745 31.1044C135.745 30.2911 135.865 29.5511 136.105 28.8844C136.345 28.2044 136.678 27.6244 137.105 27.1444C137.545 26.6644 138.065 26.2978 138.665 26.0444C139.265 25.7778 139.918 25.6444 140.625 25.6444C141.332 25.6444 141.985 25.7778 142.585 26.0444C143.185 26.2978 143.698 26.6644 144.125 27.1444C144.565 27.6244 144.905 28.2044 145.145 28.8844C145.385 29.5511 145.505 30.2911 145.505 31.1044ZM143.565 31.1044C143.565 29.9311 143.298 29.0044 142.765 28.3244C142.245 27.6311 141.532 27.2844 140.625 27.2844C139.718 27.2844 138.998 27.6311 138.465 28.3244C137.945 29.0044 137.685 29.9311 137.685 31.1044C137.685 32.2778 137.945 33.2111 138.465 33.9044C138.998 34.5844 139.718 34.9244 140.625 34.9244C141.532 34.9244 142.245 34.5844 142.765 33.9044C143.298 33.2111 143.565 32.2778 143.565 31.1044ZM156.551 22.3044C158.497 22.3044 159.991 22.6778 161.031 23.4244C162.084 24.1578 162.611 25.2578 162.611 26.7244C162.611 27.5244 162.464 28.2111 162.171 28.7844C161.891 29.3444 161.478 29.8044 160.931 30.1644C160.398 30.5111 159.744 30.7644 158.971 30.9244C158.198 31.0844 157.324 31.1644 156.351 31.1644H154.811V36.3044H152.871V22.6444C153.417 22.5111 154.024 22.4244 154.691 22.3844C155.371 22.3311 155.991 22.3044 156.551 22.3044ZM156.711 24.0044C155.884 24.0044 155.251 24.0244 154.811 24.0644V29.5044H156.271C156.938 29.5044 157.538 29.4644 158.071 29.3844C158.604 29.2911 159.051 29.1444 159.411 28.9444C159.784 28.7311 160.071 28.4444 160.271 28.0844C160.471 27.7244 160.571 27.2644 160.571 26.7044C160.571 26.1711 160.464 25.7311 160.251 25.3844C160.051 25.0378 159.771 24.7644 159.411 24.5644C159.064 24.3511 158.658 24.2044 158.191 24.1244C157.724 24.0444 157.231 24.0044 156.711 24.0044ZM173.669 31.1044C173.669 31.9311 173.549 32.6778 173.309 33.3444C173.069 34.0111 172.729 34.5844 172.289 35.0644C171.862 35.5444 171.349 35.9178 170.749 36.1844C170.149 36.4378 169.496 36.5644 168.789 36.5644C168.082 36.5644 167.429 36.4378 166.829 36.1844C166.229 35.9178 165.709 35.5444 165.269 35.0644C164.842 34.5844 164.509 34.0111 164.269 33.3444C164.029 32.6778 163.909 31.9311 163.909 31.1044C163.909 30.2911 164.029 29.5511 164.269 28.8844C164.509 28.2044 164.842 27.6244 165.269 27.1444C165.709 26.6644 166.229 26.2978 166.829 26.0444C167.429 25.7778 168.082 25.6444 168.789 25.6444C169.496 25.6444 170.149 25.7778 170.749 26.0444C171.349 26.2978 171.862 26.6644 172.289 27.1444C172.729 27.6244 173.069 28.2044 173.309 28.8844C173.549 29.5511 173.669 30.2911 173.669 31.1044ZM171.729 31.1044C171.729 29.9311 171.462 29.0044 170.929 28.3244C170.409 27.6311 169.696 27.2844 168.789 27.2844C167.882 27.2844 167.162 27.6311 166.629 28.3244C166.109 29.0044 165.849 29.9311 165.849 31.1044C165.849 32.2778 166.109 33.2111 166.629 33.9044C167.162 34.5844 167.882 34.9244 168.789 34.9244C169.696 34.9244 170.409 34.5844 170.929 33.9044C171.462 33.2111 171.729 32.2778 171.729 31.1044ZM180.126 25.6844C180.286 25.6844 180.466 25.6978 180.666 25.7244C180.879 25.7378 181.086 25.7644 181.286 25.8044C181.486 25.8311 181.666 25.8644 181.826 25.9044C181.999 25.9311 182.126 25.9578 182.206 25.9844L181.886 27.6044C181.739 27.5511 181.493 27.4911 181.146 27.4244C180.813 27.3444 180.379 27.3044 179.846 27.3044C179.499 27.3044 179.153 27.3444 178.806 27.4244C178.473 27.4911 178.253 27.5378 178.146 27.5644V36.3044H176.286V26.3444C176.726 26.1844 177.273 26.0378 177.926 25.9044C178.579 25.7578 179.313 25.6844 180.126 25.6844ZM191.221 31.1244C191.221 29.9111 190.921 28.9778 190.321 28.3244C189.721 27.6711 188.921 27.3444 187.921 27.3444C187.361 27.3444 186.921 27.3644 186.601 27.4044C186.294 27.4444 186.047 27.4911 185.861 27.5444V34.1044C186.088 34.2911 186.414 34.4711 186.841 34.6444C187.268 34.8178 187.734 34.9044 188.241 34.9044C188.774 34.9044 189.228 34.8111 189.601 34.6244C189.988 34.4244 190.301 34.1578 190.541 33.8244C190.781 33.4778 190.954 33.0778 191.061 32.6244C191.168 32.1578 191.221 31.6578 191.221 31.1244ZM193.161 31.1244C193.161 31.9111 193.054 32.6378 192.841 33.3044C192.641 33.9711 192.341 34.5444 191.941 35.0244C191.541 35.5044 191.048 35.8778 190.461 36.1444C189.888 36.4111 189.228 36.5444 188.481 36.5444C187.881 36.5444 187.347 36.4644 186.881 36.3044C186.428 36.1444 186.088 35.9911 185.861 35.8444V40.0044H184.001V26.2244C184.441 26.1178 184.987 26.0044 185.641 25.8844C186.307 25.7511 187.074 25.6844 187.941 25.6844C188.741 25.6844 189.461 25.8111 190.101 26.0644C190.741 26.3178 191.288 26.6778 191.741 27.1444C192.194 27.6111 192.541 28.1844 192.781 28.8644C193.034 29.5311 193.161 30.2844 193.161 31.1244ZM197.638 36.3044H195.778V25.9044H197.638V36.3044ZM196.698 24.0244C196.365 24.0244 196.078 23.9178 195.838 23.7044C195.612 23.4778 195.498 23.1778 195.498 22.8044C195.498 22.4311 195.612 22.1378 195.838 21.9244C196.078 21.6978 196.365 21.5844 196.698 21.5844C197.032 21.5844 197.312 21.6978 197.538 21.9244C197.778 22.1378 197.898 22.4311 197.898 22.8044C197.898 23.1778 197.778 23.4778 197.538 23.7044C197.312 23.9178 197.032 24.0244 196.698 24.0244ZM207.357 35.2644C207.197 35.3711 206.883 35.5111 206.417 35.6844C205.963 35.8444 205.43 35.9244 204.817 35.9244C204.19 35.9244 203.597 35.8244 203.037 35.6244C202.49 35.4244 202.01 35.1178 201.597 34.7044C201.183 34.2778 200.857 33.7511 200.617 33.1244C200.377 32.4978 200.257 31.7511 200.257 30.8844C200.257 30.1244 200.37 29.4311 200.597 28.8044C200.823 28.1644 201.15 27.6178 201.577 27.1644C202.017 26.6978 202.55 26.3378 203.177 26.0844C203.803 25.8178 204.51 25.6844 205.297 25.6844C206.163 25.6844 206.917 25.7511 207.557 25.8844C208.21 26.0044 208.757 26.1178 209.197 26.2244V35.5044C209.197 37.1044 208.783 38.2644 207.957 38.9844C207.13 39.7044 205.877 40.0644 204.197 40.0644C203.543 40.0644 202.923 40.0111 202.337 39.9044C201.763 39.7978 201.263 39.6711 200.837 39.5244L201.177 37.9044C201.55 38.0511 202.003 38.1778 202.537 38.2844C203.083 38.4044 203.65 38.4644 204.237 38.4644C205.343 38.4644 206.137 38.2444 206.617 37.8044C207.11 37.3644 207.357 36.6644 207.357 35.7044V35.2644ZM207.337 27.5444C207.15 27.4911 206.897 27.4444 206.577 27.4044C206.27 27.3511 205.85 27.3244 205.317 27.3244C204.317 27.3244 203.543 27.6511 202.997 28.3044C202.463 28.9578 202.197 29.8244 202.197 30.9044C202.197 31.5044 202.27 32.0178 202.417 32.4444C202.577 32.8711 202.783 33.2244 203.037 33.5044C203.303 33.7844 203.603 33.9911 203.937 34.1244C204.283 34.2578 204.637 34.3244 204.997 34.3244C205.49 34.3244 205.943 34.2578 206.357 34.1244C206.77 33.9778 207.097 33.8111 207.337 33.6244V27.5444ZM215.519 36.5044C214.373 36.4778 213.559 36.2311 213.079 35.7644C212.599 35.2978 212.359 34.5711 212.359 33.5844V21.1044L214.219 20.7844V33.2844C214.219 33.5911 214.246 33.8444 214.299 34.0444C214.353 34.2444 214.439 34.4044 214.559 34.5244C214.679 34.6444 214.839 34.7378 215.039 34.8044C215.239 34.8578 215.486 34.9044 215.779 34.9444L215.519 36.5044ZM219.728 36.3044H217.868V25.9044H219.728V36.3044ZM218.788 24.0244C218.455 24.0244 218.168 23.9178 217.928 23.7044C217.701 23.4778 217.588 23.1778 217.588 22.8044C217.588 22.4311 217.701 22.1378 217.928 21.9244C218.168 21.6978 218.455 21.5844 218.788 21.5844C219.121 21.5844 219.401 21.6978 219.628 21.9244C219.868 22.1378 219.988 22.4311 219.988 22.8044C219.988 23.1778 219.868 23.4778 219.628 23.7044C219.401 23.9178 219.121 24.0244 218.788 24.0244ZM226.447 34.9644C226.887 34.9644 227.273 34.9578 227.607 34.9444C227.953 34.9178 228.24 34.8778 228.467 34.8244V31.7244C228.333 31.6578 228.113 31.6044 227.807 31.5644C227.513 31.5111 227.153 31.4844 226.727 31.4844C226.447 31.4844 226.147 31.5044 225.827 31.5444C225.52 31.5844 225.233 31.6711 224.967 31.8044C224.713 31.9244 224.5 32.0978 224.327 32.3244C224.153 32.5378 224.067 32.8244 224.067 33.1844C224.067 33.8511 224.28 34.3178 224.707 34.5844C225.133 34.8378 225.713 34.9644 226.447 34.9644ZM226.287 25.6444C227.033 25.6444 227.66 25.7444 228.167 25.9444C228.687 26.1311 229.1 26.4044 229.407 26.7644C229.727 27.1111 229.953 27.5311 230.087 28.0244C230.22 28.5044 230.287 29.0378 230.287 29.6244V36.1244C230.127 36.1511 229.9 36.1911 229.607 36.2444C229.327 36.2844 229.007 36.3244 228.647 36.3644C228.287 36.4044 227.893 36.4378 227.467 36.4644C227.053 36.5044 226.64 36.5244 226.227 36.5244C225.64 36.5244 225.1 36.4644 224.607 36.3444C224.113 36.2244 223.687 36.0378 223.327 35.7844C222.967 35.5178 222.687 35.1711 222.487 34.7444C222.287 34.3178 222.187 33.8044 222.187 33.2044C222.187 32.6311 222.3 32.1378 222.527 31.7244C222.767 31.3111 223.087 30.9778 223.487 30.7244C223.887 30.4711 224.353 30.2844 224.887 30.1644C225.42 30.0444 225.98 29.9844 226.567 29.9844C226.753 29.9844 226.947 29.9978 227.147 30.0244C227.347 30.0378 227.533 30.0644 227.707 30.1044C227.893 30.1311 228.053 30.1578 228.187 30.1844C228.32 30.2111 228.413 30.2311 228.467 30.2444V29.7244C228.467 29.4178 228.433 29.1178 228.367 28.8244C228.3 28.5178 228.18 28.2511 228.007 28.0244C227.833 27.7844 227.593 27.5978 227.287 27.4644C226.993 27.3178 226.607 27.2444 226.127 27.2444C225.513 27.2444 224.973 27.2911 224.507 27.3844C224.053 27.4644 223.713 27.5511 223.487 27.6444L223.267 26.1044C223.507 25.9978 223.907 25.8978 224.467 25.8044C225.027 25.6978 225.633 25.6444 226.287 25.6444Z" fill="white"/>
</svg>
